# AST/ASF file generated using VICON BodyLanguage
# -----------------------------------------------
:version 1.10
:name VICON
:units
  mass 1.0
  length 0.45
  angle deg
:documentation
   .ast/.asf automatically generated from VICON data using
   VICON BodyBuilder and BodyLanguage model FoxedUp or BRILLIANT.MOD
:root
   order TX TY TZ RX RY RZ
   axis XYZ
   position 0 0 0  
   orientation 0 0 0 
:bonedata
  begin
     id 1 
     name lhipjoint
     direction 0.537252 -0.787203 0.302774 
     length 2.29576 
     axis 0 0 0  XYZ
  end
  begin
     id 2 
     name lfemur
     direction 0.34202 -0.939693 0  
     length 7.31114  
     axis 0 0 20  XYZ
    dof rx ry rz
    limits (-160.0 20.0)
           (-70.0 70.0)
           (-60.0 70.0)
  end
  begin
     id 3 
     name ltibia
     direction 0.34202 -0.939693 0   
     length 8.36008   
     axis 0 0 20   XYZ
    dof rx
    limits (-10.0 170.0)
  end
  begin
     id 4 
     name lfoot
     direction 0.0969116 -0.266263 0.959016   
     length 2.16704   
     axis -90 7.62852e-016 20   XYZ
    dof rx rz
    limits (-45.0 90.0)
           (-70.0 20.0)
  end
  begin
     id 5 
     name ltoes
     direction 1.53563e-011 -4.21779e-011 1   
     length 1.08338   
     axis -90 7.62852e-016 20   XYZ
    dof rx
    limits (-90.0 20.0)
  end
  begin
     id 6 
     name rhipjoint
     direction -0.588228 -0.754791 0.290308   
     length 2.39434  
     axis 0 0 0  XYZ 
  end
  begin
     id 7 
     name rfemur
     direction -0.34202 -0.939693 0   
     length 7.45207   
     axis 0 0 -20   XYZ
    dof rx ry rz
    limits (-160.0 20.0)
           (-70.0 70.0)
           (-70.0 60.0)
  end
  begin
     id 8 
     name rtibia
     direction -0.34202 -0.939693 0   
     length 8.03565   
     axis 0 0 -20   XYZ
    dof rx
    limits (-10.0 170.0)
 end
 begin
     id 9 
     name rfoot
     direction -0.107009 -0.294004 0.949795   
     length 2.11509  
     axis -90 -7.62852e-016 -20   XYZ
    dof rx rz
    limits (-45.0 90.0)
           (-20.0 70.0)
  end
  begin
     id 10 
     name rtoes
     direction -1.53533e-011 -4.22004e-011 1   
     length 1.05493   
     axis -90 -7.62852e-016 -20   XYZ
    dof rx
    limits (-90.0 20.0)
  end
  begin
     id 11 
     name lowerback
     direction -0.0115208 0.997969 -0.0626515   
     length 2.03153   
     axis 0 0 0   XYZ
    dof rx ry rz
    limits (-20.0 45.0)
           (-30.0 30.0)
           (-30.0 30.0)
  end
  begin
     id 12 
     name upperback
     direction -0.00423475 0.999974 -0.00583614   
     length 2.03619   
     axis 0 0 0   XYZ
    dof rx ry rz
    limits (-20.0 45.0)
           (-30.0 30.0)
           (-30.0 30.0)
  end
  begin
     id 13 
     name thorax
     direction 0.00289429 0.999728 0.0231573   
     length 2.03921   
     axis 0 0 0   XYZ
    dof rx ry rz
    limits (-20.0 45.0)
           (-30.0 30.0)
           (-30.0 30.0)
  end
  begin
     id 14 
     name lowerneck
     direction 0.0188995 0.987777 0.154721   
     length 1.78836   
     axis 0 0 0   XYZ
    dof rx ry rz
    limits (-20.0 45.0)
           (-30.0 30.0)
           (-30.0 30.0)
  end
  begin
     id 15 
     name upperneck
     direction -0.00612612 0.992995 -0.118   
     length 1.81789   
     axis 0 0 0   XYZ
    dof rx ry rz
    limits (-20.0 45.0)
           (-30.0 30.0)
           (-30.0 30.0)
  end
  begin
     id 16
     name head
     direction -0.00420226 0.998397 -0.0564482  
     length 1.82234  
     axis 0 0 0   XYZ
    dof rx ry rz
    limits (-20.0 45.0)
           (-30.0 30.0)
           (-30.0 30.0)
  end
  begin
     id 17 
     name lclavicle
     direction 0.916488 0.396539 0.0529676  
     length 3.51732  
     axis 0 0 0   XYZ
    dof ry rz
    limits (-20.0 10.0)
           (0.0 20.0)
  end
  begin
     id 18 
     name lhumerus
     direction 1 -4.4896e-011 8.36962e-028   
     length 5.45077   
     axis 180 -30 -90   XYZ
    dof rx ry rz
    limits (-60.0 90.0)
           (-90.0 90.0)
           (-90.0 90.0)
  end
  begin
     id 19
     name lradius
     direction 1 -4.48962e-011 3.01407e-027   
     length 3.05488   
     axis 180 -30 -90   XYZ
    dof rx
    limits (-10.0 170.0)
  end
  begin
     id 20
     name lwrist
     direction 1 -4.49002e-011 4.72961e-027   
     length 1.52744   
     axis -2.72261e-015 90 90   XYZ
    dof ry
    limits (-180.0 0.0)
 end
  begin
     id 21 
     name lhand
     direction 1 -4.4899e-011 9.45681e-027   
     length 0.638818   
     axis -6.0311e-015 90 90   XYZ
    dof rx rz
    limits (-90.0 90.0)
           (-45.0 45.0)
  end
  begin
     id 22 
     name lfingers
     direction 1 -4.48871e-011 1.88632e-026   
     length 0.515032   
     axis -1.20625e-014 90 90   XYZ
    dof rx
    limits (0.0 90.0)
  end
  begin
     id 23
     name lthumb
     direction 0.707107 -6.34964e-011 0.707107   
     length 0.739485   
     axis -90 45 6.32835e-014   XYZ
    dof rx rz
    limits (-45.0 45.0)
           (-45.0 45.0)
  end
  begin
     id 24 
     name rclavicle
     direction -0.949427 0.303202 0.0815894   
     length 3.76167  
     axis 0 0 0   XYZ 
    dof ry rz
    limits (-10.0 20.0)
           (-20.0 0.0)
  end
  begin
     id 25 
     name rhumerus
     direction -1 -4.48971e-011 -6.43969e-018  
     length 4.88702   
     axis 180 30 90   XYZ
    dof rx ry rz
    limits (-90.0 60.0)
           (-90.0 90.0)
           (-90.0 90.0)
  end
  begin
     id 26 
     name rradius
     direction -1 -4.48987e-011 5.46662e-027   
     length 3.22603   
     axis 180 30 90   XYZ
    dof rx
    limits (-10.0 170.0)
  end
  begin
     id 27 
     name rwrist
     direction -1 -4.48956e-011 4.72476e-027   
     length 1.61302   
     axis -2.72261e-015 -90 -90   XYZ
    dof ry
    limits (-180.0 0.0)
  end
  begin
     id 28
     name rhand
     direction -1 -4.4889e-011 9.43571e-027   
     length 0.716293   
     axis -6.0311e-015 -90 -90   XYZ
    dof rx rz
    limits (-90.0 90.0)
           (-45.0 45.0)
  end
  begin
     id 29
     name rfingers
     direction -1 -4.48887e-011 1.88701e-026   
     length 0.577494   
     axis -1.20625e-014 -90 -90   XYZ
    dof rx
    limits (0.0 90.0)
  end
  begin
     id 30
     name rthumb
     direction -0.707107 -6.34825e-011 0.707107   
     length 0.829169   
     axis -90 -45 -6.32835e-014   XYZ
    dof rx rz
    limits (-45.0 45.0)
           (-45.0 45.0)
  end
:hierarchy
  begin
    root lhipjoint rhipjoint lowerback
    lhipjoint lfemur
    lfemur ltibia
    ltibia lfoot
    lfoot ltoes
    rhipjoint rfemur
    rfemur rtibia
    rtibia rfoot
    rfoot rtoes
    lowerback upperback
    upperback thorax
    thorax lowerneck lclavicle rclavicle
    lowerneck upperneck
    upperneck head
    lclavicle lhumerus
    lhumerus lradius
    lradius lwrist
    lwrist lhand lthumb
    lhand lfingers
    rclavicle rhumerus
    rhumerus rradius
    rradius rwrist
    rwrist rhand rthumb
    rhand rfingers
  end

#!OML:ASF F:\VICON\USERDATA\INSTALL\rory3\rory3.ASF
:FULLY-SPECIFIED
:DEGREES
3152
root 1.25015 18.4928 2.28787 -171.932 73.9694 -183.282
lowerback -8.18323 3.25038 0.238041
upperback -1.69093 4.46237 -2.5546
thorax 3.04983 2.26326 -2.29067
lowerneck -15.4984 8.25148 10.3589
upperneck 24.3591 11.3177 -6.71097
head 11.4842 5.49488 -2.43343
rclavicle -3.09856e-014 2.10712e-014
rhumerus 57.2906 33.9022 -86.0666
rradius 35.8485
rwrist 217.541
rhand -27.1981 -0.858741
rfingers 7.12502
rthumb -0.611465 -30.8376
lclavicle -3.09856e-014 2.10712e-014
lhumerus 43.5304 9.43276 64.8908
lradius 19.1964
lwrist -17.338
lhand -15.5318 26.8455
lfingers 7.12502
lthumb 10.6519 56.5555
rfemur -10.6604 -21.8251 27.2744
rtibia 6.80482
rfoot -7.36535 9.37738
rtoes 1.73341
lfemur -18.3988 -1.72477 -11.1748
ltibia 15.9596
lfoot -8.86459 -6.1842
ltoes -29.7729
3153
root 1.24928 18.4943 2.28705 -172.187 74.0224 -183.557
lowerback -8.2036 3.27335 0.207112
upperback -1.68346 4.49797 -2.59202
thorax 3.07118 2.28124 -2.30663
lowerneck -15.6279 8.26508 10.4396
upperneck 24.4482 11.3188 -6.74328
head 11.5515 5.49483 -2.45284
rclavicle 3.22528e-014 -1.70955e-014
rhumerus 57.4291 33.9943 -85.9704
rradius 35.8324
rwrist 217.425
rhand -27.1254 -0.718907
rfingers 7.12502
rthumb -0.541237 -30.698
lclavicle 3.22528e-014 -1.70955e-014
lhumerus 43.6405 9.64978 65.0953
lradius 19.1453
lwrist -17.6291
lhand -15.3524 26.8415
lfingers 7.12502
lthumb 10.8248 56.5426
rfemur -10.6433 -21.7889 27.1674
rtibia 6.74711
rfoot -7.31007 9.36495
rtoes 1.86535
lfemur -18.44 -1.70264 -11.2807
ltibia 15.963
lfoot -8.88846 -6.13106
ltoes -30.0844
3154
root 1.24985 18.4942 2.2878 -172.224 74.0386 -183.591
lowerback -8.20929 3.28846 0.200767
upperback -1.68432 4.51905 -2.59826
thorax 3.07443 2.29178 -2.30685
lowerneck -15.7099 8.26674 10.5074
upperneck 24.4989 11.3086 -6.7797
head 11.5931 5.48951 -2.47559
rclavicle 1.32937e-014 3.97569e-016
rhumerus 57.5025 34.0776 -85.9161
rradius 35.8387
rwrist 217.33
rhand -27.1997 -0.598152
rfingers 7.12502
rthumb -0.613012 -30.577
lclavicle 1.32937e-014 3.97569e-016
lhumerus 43.7734 9.89375 65.4057
lradius 19.0301
lwrist -17.9876
lhand -15.2463 26.6873
lfingers 7.12502
lthumb 10.9272 56.3829
rfemur -10.6117 -21.7774 27.1488
rtibia 6.69668
rfoot -7.26748 9.32808
rtoes 2.14537
lfemur -18.5309 -1.63303 -11.3112
ltibia 15.9765
lfoot -8.96629 -6.17974
ltoes -30.5518
3155
root 1.25081 18.4935 2.28862 -172.172 74.0347 -183.524
lowerback -8.18547 3.30274 0.254199
upperback -1.69839 4.53337 -2.60537
thorax 3.05195 2.29943 -2.34423
lowerneck -15.6944 8.26924 10.5394
upperneck 24.4557 11.2938 -6.76456
head 11.5733 5.48719 -2.47838
rclavicle 6.62698e-014 6.75868e-015
rhumerus 57.4831 34.0898 -86.0554
rradius 35.7896
rwrist 217.343
rhand -27.3671 -0.487695
rfingers 7.12502
rthumb -0.774614 -30.466
lclavicle 6.62698e-014 6.75868e-015
lhumerus 43.7982 9.86657 65.4078
lradius 19.0131
lwrist -18.0085
lhand -15.2116 26.6285
lfingers 7.12502
lthumb 10.9607 56.3224
rfemur -10.5821 -21.7789 27.1755
rtibia 6.67126
rfoot -7.26446 9.30623
rtoes 2.0169
lfemur -18.5304 -1.67495 -11.2631
ltibia 15.9811
lfoot -8.94386 -6.20443
ltoes -30.2725
3156
root 1.24962 18.4929 2.28833 -171.887 74.0098 -183.249
lowerback -8.16745 3.31413 0.40626
upperback -1.7388 4.53594 -2.62126
thorax 3.01315 2.30221 -2.44756
lowerneck -15.6949 8.2879 10.6091
upperneck 24.4759 11.2908 -6.72059
head 11.5828 5.49703 -2.47369
rclavicle 6.21948e-014 -5.96354e-015
rhumerus 57.2555 34.0598 -86.5905
rradius 35.71
rwrist 217.584
rhand -27.4556 -0.54277
rfingers 7.12502
rthumb -0.860164 -30.5208
lclavicle 6.21948e-014 -5.96354e-015
lhumerus 43.7419 9.65033 65.1401
lradius 19.0259
lwrist -17.7907
lhand -15.0772 26.5169
lfingers 7.12502
lthumb 11.0903 56.2039
rfemur -10.5975 -21.7891 27.272
rtibia 6.64251
rfoot -7.28733 9.26507
rtoes 1.81479
lfemur -18.483 -1.68514 -11.1657
ltibia 15.9871
lfoot -8.79753 -6.21993
ltoes -29.6194
